<svg xmlns="http://www.w3.org/2000/svg" width="79" height="93" fill="none"><path d="M79 46.5C79 72.181 71.727 93 46.208 93S0 72.181 0 46.5 20.688 0 46.208 0 79 20.819 79 46.5z" fill="#899cb1"/><g clip-path="url(#A)" fill="#fff"><path d="M38.326 59.076v.485c0 .372.302.674.674.674s.674-.302.674-.674v-.485c0-.372-.302-.674-.674-.674s-.674.302-.674.674zm-.125 5.167c0-.372-.302-.674-.674-.674h-4.783c-.372 0-.674.302-.674.674s.302.674.674.674h4.783c.179 0 .35-.071.477-.197s.197-.298.197-.476zm7.056.674c.372 0 .674-.302.674-.674s-.302-.674-.674-.674h-5.507c-.372 0-.674.302-.674.674s.302.674.674.674h5.507zm-12.513 1.116c-.372 0-.674.302-.674.674s.302.674.674.674h2.141c.372 0 .674-.302.674-.674s-.302-.674-.674-.674h-2.141zm4.364 1.348h8.149c.372 0 .674-.302.674-.674s-.302-.674-.674-.674h-8.149c-.372 0-.674.302-.674.674s.302.674.674.674z"/><path d="M51.801 29.356c-3.333-3.381-7.781-5.282-12.524-5.354a17.83 17.83 0 0 0-8.819 2.193 18.34 18.34 0 0 0-6.501 6.006.67.67 0 0 0-.096.507c.037.175.141.328.29.426a.67.67 0 0 0 .507.096c.175-.037.328-.141.426-.29 3.174-4.839 8.47-7.676 14.172-7.591 9.027.136 16.371 7.594 16.371 16.625a16.67 16.67 0 0 1-13.325 16.298c-.496.1-.933.402-1.199.83l-1.689 2.715a.48.48 0 0 1-.415.23.48.48 0 0 1-.415-.23l-1.689-2.715c-.133-.212-.307-.395-.513-.538a1.83 1.83 0 0 0-.684-.291c-7.74-1.559-13.344-8.43-13.326-16.338a16.31 16.31 0 0 1 1.483-6.771c.037-.081.057-.167.061-.256a.66.66 0 0 0-.042-.26.68.68 0 0 0-.138-.224c-.06-.065-.133-.117-.213-.154s-.168-.057-.256-.06a.67.67 0 0 0-.259.042.68.68 0 0 0-.224.138c-.065.06-.117.133-.154.213a17.62 17.62 0 0 0-1.605 7.328c-.02 8.549 6.04 15.977 14.407 17.662a.49.49 0 0 1 .319.22l.707 1.136h-3.643a4.53 4.53 0 0 0-4.524 4.524A4.53 4.53 0 0 0 32.815 70h5.632c.372 0 .674-.302.674-.674s-.302-.674-.674-.674h-5.632a3.18 3.18 0 0 1-3.177-3.177 3.18 3.18 0 0 1 3.177-3.177h4.482l.144.231c.338.542.92.866 1.559.866s1.221-.324 1.559-.866l.144-.231h4.482a3.18 3.18 0 0 1 3.177 3.177 3.18 3.18 0 0 1-3.177 3.177h-4.132c-.372 0-.674.302-.674.674s.302.674.674.674h4.132a4.53 4.53 0 0 0 4.524-4.525 4.53 4.53 0 0 0-4.524-4.524h-3.643l.707-1.136c.036-.057.083-.105.138-.143a.49.49 0 0 1 .183-.077c4.01-.808 7.662-2.998 10.285-6.166a18 18 0 0 0 4.122-11.453 17.87 17.87 0 0 0-5.174-12.619zm-1.247 21.592c.072.051.154.087.24.107s.176.022.263.007a.67.67 0 0 0 .245-.094c.075-.047.14-.109.191-.181 1.828-2.587 2.794-5.634 2.794-8.812 0-8.429-6.858-15.287-15.287-15.287s-15.287 6.858-15.287 15.287S30.571 57.262 39 57.262a15.2 15.2 0 0 0 10.729-4.398.68.68 0 0 0 .148-.218.67.67 0 0 0-.14-.736c-.062-.063-.136-.113-.217-.148a.67.67 0 0 0-.516-.004.66.66 0 0 0-.22.145 13.86 13.86 0 0 1-9.783 4.011 13.96 13.96 0 0 1-13.94-13.94A13.96 13.96 0 0 1 39 28.035a13.96 13.96 0 0 1 13.94 13.94c0 2.898-.881 5.676-2.547 8.034-.103.146-.144.327-.114.503a.67.67 0 0 0 .275.436zM42.15 45.22l-2.439.813c-.913.305-1.683-.041-1.722-.048a2.5 2.5 0 0 1-1.646-1.965c-.169-1.051.347-2.096 1.284-2.601l2.661-1.433c.157-.085.275-.228.326-.4s.033-.356-.052-.513a.67.67 0 0 0-.167-.203c-.069-.056-.148-.098-.232-.123a.68.68 0 0 0-.262-.025.67.67 0 0 0-.251.077l-1.931 1.04-.556-.592a.87.87 0 0 1 1.015-1.37l.585.289c.16.079.345.091.514.034s.309-.179.388-.339.091-.345.034-.515a.67.67 0 0 0-.339-.388l-.585-.289a2.23 2.23 0 0 0-2.603.477 2.22 2.22 0 0 0 .009 3.024l.338.36c-1.141.847-1.737 2.272-1.506 3.703.318 1.972 2.055 3.274 3.907 3.274a3.85 3.85 0 0 0 1.217-.196l2.439-.813c.084-.028.162-.072.228-.13a.67.67 0 0 0 .231-.461.68.68 0 0 0-.033-.261.67.67 0 0 0-.13-.228c-.058-.067-.129-.122-.208-.161s-.165-.063-.254-.069a.68.68 0 0 0-.261.033zm5.635-5.313c.389-.949.318-2.003-.195-2.892a3.26 3.26 0 0 0-2.407-1.614l-1.426-.193a1.93 1.93 0 0 1-1.275-.736l-.88-1.139c-.627-.812-1.576-1.277-2.602-1.277s-1.974.466-2.601 1.277l-.88 1.139a1.93 1.93 0 0 1-1.275.736l-1.426.193c-1.017.138-1.894.726-2.407 1.614s-.584 1.942-.195 2.892l.546 1.332a1.93 1.93 0 0 1 0 1.472l-.546 1.332c-.389.949-.318 2.003.195 2.892a3.26 3.26 0 0 0 2.407 1.614l1.426.193a1.93 1.93 0 0 1 1.275.736l.88 1.139c.627.812 1.575 1.277 2.601 1.277h0a3.27 3.27 0 0 0 2.602-1.277l.88-1.139a1.93 1.93 0 0 1 1.275-.736l1.426-.193c1.017-.138 1.894-.726 2.407-1.615s.584-1.942.195-2.891l-.546-1.332a1.93 1.93 0 0 1 0-1.472l.546-1.332zm-1.793 3.315l.546 1.332c.23.56.188 1.182-.115 1.706s-.82.872-1.42.953l-1.426.193a3.27 3.27 0 0 0-2.161 1.248l-.88 1.139c-.37.479-.93.754-1.535.754s-1.165-.275-1.535-.754l-.88-1.139a3.27 3.27 0 0 0-2.16-1.248L33 47.213c-.6-.081-1.118-.428-1.42-.953s-.345-1.146-.115-1.706l.546-1.332a3.27 3.27 0 0 0 0-2.495l-.546-1.332c-.23-.56-.188-1.182.115-1.706s.82-.872 1.42-.953l1.426-.193a3.27 3.27 0 0 0 2.16-1.248l.88-1.139c.37-.479.93-.754 1.535-.754s1.165.275 1.535.754l.88 1.139a3.27 3.27 0 0 0 2.161 1.248l1.426.193c.6.081 1.118.428 1.42.953s.345 1.146.115 1.706l-.546 1.332a3.27 3.27 0 0 0 0 2.495z"/></g><defs><clipPath id="A"><path fill="#fff" transform="translate(16 24)" d="M0 0h46v46H0z"/></clipPath></defs></svg>