<svg xmlns="http://www.w3.org/2000/svg" xmlns:xlink="http://www.w3.org/1999/xlink" width="2560" height="243" viewBox="0 0 2561 243"><g fill="rgb(100%,100%,100%)"><path d="M2257.523 129.641c0 66.695-58.426 120.762-130.488 120.762s-130.469-54.066-130.469-120.762 58.41-120.766 130.469-120.766 130.488 54.066 130.488 120.766zm0 0"/><path d="M2429.551 129.641c0 66.695-58.41 120.762-130.469 120.762s-130.473-54.066-130.473-120.762S2227.02 8.875 2299.082 8.875s130.469 54.066 130.469 120.766zm0 0"/><path d="M2352.242 295.809c0 66.695-58.43 120.762-130.488 120.762s-130.473-54.066-130.473-120.762 58.41-120.762 130.473-120.762 130.488 54.066 130.488 120.762zm0 0"/><path d="M2168.609 249.434c0 66.699-58.426 120.766-130.488 120.766s-130.469-54.066-130.469-120.766 58.41-120.762 130.469-120.762 130.488 54.066 130.488 120.762zm0 0"/><path d="M2561 249.434c0 66.699-58.41 120.766-130.469 120.766s-130.488-54.066-130.488-120.766 58.426-120.762 130.488-120.762S2561 182.738 2561 249.434zm-626.922-90.547c0 61.281-53.676 110.957-119.879 110.957-66.215 0-119.887-49.676-119.887-110.957s53.672-110.953 119.887-110.953 119.879 49.676 119.879 110.953zm0 0"/><path d="M2092.137 158.887c0 61.281-53.676 110.957-119.883 110.957s-119.879-49.676-119.879-110.957 53.676-110.953 119.879-110.953 119.883 49.676 119.883 110.953zm0 0"/><path d="M2021.09 311.563c0 61.281-53.656 110.957-119.883 110.957-66.203 0-119.879-49.676-119.879-110.957s53.676-110.953 119.879-110.953c66.227 0 119.883 49.676 119.883 110.953zm0 0"/><path d="M1852.375 268.957c0 61.277-53.676 110.953-119.879 110.953s-119.883-49.676-119.883-110.953S1666.289 158 1732.496 158s119.879 49.676 119.879 110.957zm360.531 0c0 61.277-53.676 110.953-119.879 110.953s-119.883-49.676-119.883-110.953S2026.82 158 2093.027 158s119.879 49.676 119.879 110.957zm-1062.054-158c0 61.277-53.672 110.953-119.883 110.953S911.09 172.234 911.09 110.957 964.762 0 1030.969 0s119.883 49.676 119.883 110.957zm0 0"/><path d="M1308.918 110.957c0 61.277-53.672 110.953-119.883 110.953s-119.879-49.676-119.879-110.953S1122.828 0 1189.035 0s119.883 49.676 119.883 110.957zm0 0"/><path d="M1237.875 263.633c0 61.277-53.672 110.953-119.879 110.953S998.117 324.91 998.117 263.633s53.672-110.957 119.879-110.957 119.879 49.676 119.879 110.957zm0 0"/><path d="M1069.156 221.023c0 61.277-53.676 110.957-119.883 110.957S829.394 282.3 829.394 221.023s53.672-110.957 119.879-110.957 119.883 49.68 119.883 110.957zm360.532 0c0 61.277-53.676 110.957-119.883 110.957s-119.883-49.68-119.883-110.957 53.676-110.957 119.883-110.957 119.883 49.68 119.883 110.957zm-639.368 0c0 61.277-53.672 110.957-119.879 110.957S550.558 282.3 550.558 221.023s53.672-110.957 119.883-110.957 119.879 49.68 119.879 110.957zm0 0"/><path d="M948.387 221.023c0 61.277-53.672 110.957-119.883 110.957s-119.879-49.68-119.879-110.957 53.672-110.957 119.879-110.957 119.883 49.68 119.883 110.957zm0 0"/><use xlink:href="#B"/><path d="M708.625 331.09c0 61.281-53.672 110.957-119.879 110.957S468.863 392.371 468.863 331.09s53.672-110.953 119.883-110.953 119.879 49.676 119.879 110.953zm360.531 0c0 61.281-53.676 110.957-119.883 110.957S829.395 392.371 829.395 331.09s53.672-110.953 119.879-110.953 119.883 49.676 119.883 110.953zM358.672 167.023c0 68.711-60.184 124.414-134.422 124.414S89.828 235.734 89.828 167.023 150.012 42.609 224.25 42.609s134.422 55.703 134.422 124.414zm0 0"/><path d="M535.91 167.023c0 68.711-60.184 124.414-134.422 124.414s-134.422-55.703-134.422-124.414S327.25 42.609 401.488 42.609 535.91 98.313 535.91 167.023zm0 0"/><path d="M456.254 338.219c0 68.711-60.184 124.414-134.426 124.414S187.406 406.93 187.406 338.219s60.184-124.418 134.422-124.418 134.426 55.703 134.426 124.418zm0 0"/><path d="M267.066 290.441c0 68.711-60.184 124.414-134.422 124.414S-1.781 359.152-1.781 290.441s60.184-124.414 134.426-124.414 134.422 55.699 134.422 124.414zm404.262 0c0 68.711-60.184 124.414-134.422 124.414s-134.422-55.703-134.422-124.414 60.184-124.414 134.422-124.414 134.422 55.699 134.422 124.414zm877.348-136.879c0 61.281-53.672 110.953-119.879 110.953s-119.879-49.672-119.879-110.953 53.672-110.953 119.879-110.953 119.879 49.676 119.879 110.953zm0 0"/><path d="M1706.742 153.563c0 61.281-53.672 110.953-119.879 110.953s-119.883-49.672-119.883-110.953 53.672-110.953 119.883-110.953 119.879 49.676 119.879 110.953zm0 0"/><use xlink:href="#B" x="758.355" y="-67.461"/><path d="M1466.98 263.633c0 61.277-53.672 110.953-119.879 110.953s-119.883-49.676-119.883-110.953 53.676-110.957 119.883-110.957 119.879 49.676 119.879 110.957zm360.532 0c0 61.277-53.672 110.953-119.883 110.953S1587.75 324.91 1587.75 263.633s53.672-110.957 119.879-110.957 119.883 49.676 119.883 110.957zm0 0"/></g><defs ><path id="B" d="M877.348 373.699c0 61.277-53.672 110.953-119.883 110.953s-119.879-49.676-119.879-110.953 53.672-110.957 119.879-110.957 119.883 49.676 119.883 110.957zm0 0"/></defs></svg>