<svg xmlns="http://www.w3.org/2000/svg" width="90" height="91" fill="none"><rect y=".133" width="90" height="90" rx="25" fill="#ffebe5"/><path d="M63 34.633H27a4.5 4.5 0 0 0-4.5 4.5v24a4.5 4.5 0 0 0 4.5 4.5h36a4.5 4.5 0 0 0 4.5-4.5v-24a4.5 4.5 0 0 0-4.5-4.5z" fill="#4f6271"/><g fill="#899cb1"><path d="M65.445 65.383h-36a4.5 4.5 0 0 1-4.5-4.5v-24c-.001-.671.153-1.333.45-1.935a4.5 4.5 0 0 0-2.895 4.185v24a4.5 4.5 0 0 0 4.5 4.5h36a4.5 4.5 0 0 0 4.035-2.565 4.35 4.35 0 0 1-1.59.315z"/><path d="M63 34.633H27a4.5 4.5 0 0 0-4.065 2.61l20.91 20.91c.306.306.722.478 1.155.478s.848-.172 1.155-.478l20.91-20.91A4.5 4.5 0 0 0 63 34.633z"/></g><g fill="#f79999"><path d="M67.215 64.633L52.65 50.113c-.15-.153-.328-.274-.525-.357s-.409-.126-.622-.126-.425.043-.623.126-.376.204-.525.357L45 55.453l-5.355-5.34c-.15-.153-.328-.274-.525-.357s-.409-.126-.623-.126-.425.043-.623.126-.375.204-.525.357l-14.565 14.52a4.5 4.5 0 0 0 4.215 3h36a4.5 4.5 0 0 0 4.215-3z"/><path d="M63.915 67.528l.42-.105.27-.105c.113-.038.223-.083.33-.135l.27-.15.3-.18.24-.18.255-.225a1.02 1.02 0 0 0 .225-.21l.225-.255a2.49 2.49 0 0 0 .195-.24l.195-.3.135-.255v-.105a4.59 4.59 0 0 1-1.575.3h-36a4.5 4.5 0 0 1-4.26-3.105l-2.355 2.355.255.555a.3.3 0 0 1 0 .12l.315.48.105.12c.213.261.455.497.72.705.057.054.117.104.18.15l.3.18.39.225.3.12.51.15h.255c.286.1.583.166.885.195h36a3.46 3.46 0 0 0 .69 0 1.2 1.2 0 0 0 .225-.105zm-2.13-32.895h-33.57v7.905l15.63 15.615c.306.306.722.478 1.155.478s.848-.172 1.155-.478l15.63-15.615v-7.905z"/></g><path d="M60 27.133v8.587 8.588L46.155 58.153c-.306.306-.722.478-1.155.478s-.849-.172-1.155-.478L30 44.308V27.133a4.5 4.5 0 0 1 4.5-4.5h21a4.5 4.5 0 0 1 4.5 4.5z" fill="#e0e5ec"/><path d="M31.875 45.868V28.633a4.5 4.5 0 0 1 4.5-4.5h21c.632.001 1.257.139 1.83.405a4.5 4.5 0 0 0-3.705-1.905h-21a4.5 4.5 0 0 0-4.5 4.5v17.175l13.845 13.845a1.63 1.63 0 0 0 .705.39L31.875 45.868zm21.09-13.665h-15a1.5 1.5 0 1 1 0-3h15a1.5 1.5 0 1 1 0 3zm0 6.06h-15a1.5 1.5 0 1 1 0-3h15a1.5 1.5 0 1 1 0 3zm0 6.06h-15a1.5 1.5 0 1 1 0-3h15a1.5 1.5 0 1 1 0 3z" fill="#f79999"/><path d="M52.5 31.633h-15a1.5 1.5 0 0 1-1.5-1.5 1.5 1.5 0 0 1 1.5-1.5h15a1.5 1.5 0 0 1 1.5 1.5 1.5 1.5 0 0 1-1.5 1.5zm0 6h-15a1.5 1.5 0 0 1-1.5-1.5 1.5 1.5 0 0 1 1.5-1.5h15a1.5 1.5 0 0 1 1.5 1.5 1.5 1.5 0 0 1-1.5 1.5zm0 6h-15a1.5 1.5 0 0 1-1.5-1.5 1.5 1.5 0 0 1 1.5-1.5h15a1.5 1.5 0 0 1 1.5 1.5 1.5 1.5 0 0 1-1.5 1.5z" fill="#4f6271"/></svg>