<svg xmlns="http://www.w3.org/2000/svg" width="24" height="24" fill="none"><g clip-path="url(#A)" fill="#fff"><path d="M23.597 10.925L19.96 7.288V3.086c0-.76-.616-1.375-1.376-1.375s-1.375.616-1.375 1.375v1.451L14.5 1.828C13.161.49 10.833.493 9.497 1.831L.403 10.925c-.537.538-.537 1.408 0 1.945s1.409.538 1.946 0l9.094-9.095c.296-.295.818-.295 1.113-.001l9.095 9.096c.27.269.621.403.973.403a1.37 1.37 0 0 0 .973-.403c.537-.537.537-1.407 0-1.945zM12.478 6.387c-.264-.264-.692-.264-.956 0l-8 7.997a.68.68 0 0 0-.198.479v5.833a2.48 2.48 0 0 0 2.478 2.479h3.961v-6.134h4.472v6.134h3.961a2.48 2.48 0 0 0 2.478-2.479v-5.833c0-.18-.071-.352-.198-.479l-7.999-7.997z"/></g><defs><clipPath id="A"><path fill="#fff" d="M0 0h24v24H0z"/></clipPath></defs></svg>