<svg xmlns="http://www.w3.org/2000/svg" width="79" height="93" fill="none"><path d="M79 46.5C79 72.181 71.727 93 46.208 93S0 72.181 0 46.5 20.688 0 46.208 0 79 20.819 79 46.5z" fill="#4f6271"/><mask id="A" fill="#fff"><path d="M45.398 48.767c.067 0 .133.023.185.066s.089.102.102.168l.356 1.713a.72.72 0 0 0 .704.573h8.493a.72.72 0 0 0 .557-.266.72.72 0 0 0 .147-.599l-.543-2.617a3.82 3.82 0 0 1 .479-2.774l1.657-2.723c.663-1.095 1.099-2.313 1.28-3.58s.107-2.558-.222-3.795a9.49 9.49 0 0 0-9.154-7.027h-.59a9.34 9.34 0 0 0-9.327 9.328v1.1l-1.623 2.496c-.122.187-.202.397-.235.617s-.019.445.043.659.168.413.313.582.324.305.526.399l1.051.49.448 2.549a3.19 3.19 0 0 0 3.148 2.644h2.205zm-3.937-2.892l-.513-2.918c-.02-.114-.067-.221-.138-.313s-.162-.165-.267-.214l-1.392-.648c-.04-.018-.056-.05-.062-.073s-.01-.059.015-.097l1.739-2.674a.72.72 0 0 0 .116-.392v-1.313a7.9 7.9 0 0 1 7.89-7.89h.59a8.05 8.05 0 0 1 7.765 5.962c.564 2.11.237 4.389-.898 6.256l-1.657 2.723a5.26 5.26 0 0 0-.658 3.814l.364 1.752H47.33l-.237-1.14a1.74 1.74 0 0 0-1.695-1.379h-2.205c-.414.001-.814-.145-1.131-.411s-.53-.635-.601-1.043zm4.037-2.631l-2.424.364c-.188.026-.379-.022-.532-.135s-.255-.282-.285-.469a.72.72 0 0 1 .132-.534.72.72 0 0 1 .471-.284l3.259-.489c.186-.026.375.02.528.131s.255.276.288.461c.187 1.115-.169 3.402-2.857 4.068a.72.72 0 0 1-.544-.082.72.72 0 0 1-.208-.189c-.056-.076-.097-.162-.119-.254a.72.72 0 0 1 .082-.544.72.72 0 0 1 .443-.327c1.265-.312 1.657-1.113 1.767-1.717zM22.28 39.261h6.856l3.881 3.104a.72.72 0 0 0 .76.086.72.72 0 0 0 .407-.648v-2.542h.395a3.2 3.2 0 0 0 3.195-3.194v-5.568a3.2 3.2 0 0 0-3.195-3.194H22.28a3.2 3.2 0 0 0-3.194 3.194v5.568c.001.847.338 1.659.936 2.258s1.411.936 2.258.936zm-1.757-8.762a1.76 1.76 0 0 1 1.757-1.757H34.58a1.76 1.76 0 0 1 1.757 1.757v5.568a1.76 1.76 0 0 1-1.757 1.757h-1.114a.72.72 0 0 0-.719.719v1.766l-2.911-2.327c-.127-.102-.286-.158-.449-.157H22.28a1.76 1.76 0 0 1-1.757-1.757v-5.568h-.001zM55.72 53.049h-7.653a3.2 3.2 0 0 0-3.194 3.194v.573h-2.542a.72.72 0 0 0-.647.408.72.72 0 0 0 .085.76l3.104 3.881v1.637a3.2 3.2 0 0 0 3.194 3.194h7.653a3.2 3.2 0 0 0 3.194-3.194v-7.258c-.001-.847-.338-1.659-.936-2.258s-1.411-.936-2.258-.936zm1.757 10.453a1.76 1.76 0 0 1-1.757 1.757h-7.653a1.76 1.76 0 0 1-1.757-1.757v-1.889c0-.163-.056-.321-.157-.449l-2.327-2.911h1.766a.72.72 0 0 0 .719-.719v-1.292a1.76 1.76 0 0 1 1.757-1.757h7.653a1.76 1.76 0 0 1 1.757 1.757l.001 7.259zm-18.999-9.759v-1.1a9.34 9.34 0 0 0-9.327-9.328h-.59a9.49 9.49 0 0 0-9.154 7.027c-.328 1.237-.404 2.528-.222 3.796s.618 2.485 1.281 3.58l1.657 2.723c.506.83.678 1.822.479 2.774l-.543 2.617a.72.72 0 0 0 .147.599.72.72 0 0 0 .557.266h8.493a.72.72 0 0 0 .704-.573l.356-1.713c.014-.066.05-.125.102-.168s.118-.066.185-.066h2.205a3.19 3.19 0 0 0 3.148-2.644l.448-2.549 1.051-.489c.202-.094.382-.23.527-.399a1.55 1.55 0 0 0 .356-1.241 1.55 1.55 0 0 0-.235-.618l-1.624-2.495zm.433 3.376c-.004.016-.012.031-.023.044s-.024.023-.04.03l-1.392.648a.72.72 0 0 0-.405.527l-.512 2.919c-.071.408-.284.777-.601 1.043s-.718.412-1.131.411h-2.205c-.398.001-.783.139-1.091.39a1.74 1.74 0 0 0-.604.989l-.237 1.14h-7.025l.364-1.752a5.25 5.25 0 0 0-.658-3.814l-1.657-2.723a8.08 8.08 0 0 1-1.087-3.037c-.154-1.075-.09-2.17.188-3.22a8.05 8.05 0 0 1 7.765-5.961h.59a7.9 7.9 0 0 1 7.89 7.891v1.313c0 .139.04.275.116.392l1.739 2.674c.01.014.016.03.019.047s.002.034-.004.051zm-3.168 1.296c-.03.188-.132.356-.285.469s-.344.162-.532.135l-2.424-.364c.109.602.5 1.404 1.767 1.719a.72.72 0 0 1 .443.327.72.72 0 0 1 .082.544.72.72 0 0 1-.327.443c-.081.049-.171.081-.264.095a.72.72 0 0 1-.28-.013c-2.688-.666-3.044-2.953-2.857-4.068a.72.72 0 0 1 .816-.592l3.259.489c.392.058.663.424.604.816z"/></mask><path d="M45.398 48.767c.067 0 .133.023.185.066s.089.102.102.168l.356 1.713a.72.72 0 0 0 .704.573h8.493a.72.72 0 0 0 .557-.266.72.72 0 0 0 .147-.599l-.543-2.617a3.82 3.82 0 0 1 .479-2.774l1.657-2.723c.663-1.095 1.099-2.313 1.28-3.58s.107-2.558-.222-3.795a9.49 9.49 0 0 0-9.154-7.027h-.59a9.34 9.34 0 0 0-9.327 9.328v1.1l-1.623 2.496c-.122.187-.202.397-.235.617s-.019.445.043.659.168.413.313.582.324.305.526.399l1.051.49.448 2.549a3.19 3.19 0 0 0 3.148 2.644h2.205zm-3.937-2.892l-.513-2.918c-.02-.114-.067-.221-.138-.313s-.162-.165-.267-.214l-1.392-.648c-.04-.018-.056-.05-.062-.073s-.01-.059.015-.097l1.739-2.674a.72.72 0 0 0 .116-.392v-1.313a7.9 7.9 0 0 1 7.89-7.89h.59a8.05 8.05 0 0 1 7.765 5.962c.564 2.11.237 4.389-.898 6.256l-1.657 2.723a5.26 5.26 0 0 0-.658 3.814l.364 1.752H47.33l-.237-1.14a1.74 1.74 0 0 0-1.695-1.379h-2.205c-.414.001-.814-.145-1.131-.411s-.53-.635-.601-1.043zm4.037-2.631l-2.424.364c-.188.026-.379-.022-.532-.135s-.255-.282-.285-.469a.72.72 0 0 1 .132-.534.72.72 0 0 1 .471-.284l3.259-.489c.186-.026.375.02.528.131s.255.276.288.461c.187 1.115-.169 3.402-2.857 4.068a.72.72 0 0 1-.544-.082.72.72 0 0 1-.208-.189c-.056-.076-.097-.162-.119-.254a.72.72 0 0 1 .082-.544.72.72 0 0 1 .443-.327c1.265-.312 1.657-1.113 1.767-1.717zM22.28 39.261h6.856l3.881 3.104a.72.72 0 0 0 .76.086.72.72 0 0 0 .407-.648v-2.542h.395a3.2 3.2 0 0 0 3.195-3.194v-5.568a3.2 3.2 0 0 0-3.195-3.194H22.28a3.2 3.2 0 0 0-3.194 3.194v5.568c.001.847.338 1.659.936 2.258s1.411.936 2.258.936zm-1.757-8.762a1.76 1.76 0 0 1 1.757-1.757H34.58a1.76 1.76 0 0 1 1.757 1.757v5.568a1.76 1.76 0 0 1-1.757 1.757h-1.114a.72.72 0 0 0-.719.719v1.766l-2.911-2.327c-.127-.102-.286-.158-.449-.157H22.28a1.76 1.76 0 0 1-1.757-1.757v-5.568h-.001zM55.72 53.049h-7.653a3.2 3.2 0 0 0-3.194 3.194v.573h-2.542a.72.72 0 0 0-.647.408.72.72 0 0 0 .085.76l3.104 3.881v1.637a3.2 3.2 0 0 0 3.194 3.194h7.653a3.2 3.2 0 0 0 3.194-3.194v-7.258c-.001-.847-.338-1.659-.936-2.258s-1.411-.936-2.258-.936zm1.757 10.453a1.76 1.76 0 0 1-1.757 1.757h-7.653a1.76 1.76 0 0 1-1.757-1.757v-1.889c0-.163-.056-.321-.157-.449l-2.327-2.911h1.766a.72.72 0 0 0 .719-.719v-1.292a1.76 1.76 0 0 1 1.757-1.757h7.653a1.76 1.76 0 0 1 1.757 1.757l.001 7.259zm-18.999-9.759v-1.1a9.34 9.34 0 0 0-9.327-9.328h-.59a9.49 9.49 0 0 0-9.154 7.027c-.328 1.237-.404 2.528-.222 3.796s.618 2.485 1.281 3.58l1.657 2.723c.506.83.678 1.822.479 2.774l-.543 2.617a.72.72 0 0 0 .147.599.72.72 0 0 0 .557.266h8.493a.72.72 0 0 0 .704-.573l.356-1.713c.014-.066.05-.125.102-.168s.118-.066.185-.066h2.205a3.19 3.19 0 0 0 3.148-2.644l.448-2.549 1.051-.489c.202-.094.382-.23.527-.399a1.55 1.55 0 0 0 .356-1.241 1.55 1.55 0 0 0-.235-.618l-1.624-2.495zm.433 3.376c-.004.016-.012.031-.023.044s-.024.023-.04.03l-1.392.648a.72.72 0 0 0-.405.527l-.512 2.919c-.071.408-.284.777-.601 1.043s-.718.412-1.131.411h-2.205c-.398.001-.783.139-1.091.39a1.74 1.74 0 0 0-.604.989l-.237 1.14h-7.025l.364-1.752a5.25 5.25 0 0 0-.658-3.814l-1.657-2.723a8.08 8.08 0 0 1-1.087-3.037c-.154-1.075-.09-2.17.188-3.22a8.05 8.05 0 0 1 7.765-5.961h.59a7.9 7.9 0 0 1 7.89 7.891v1.313c0 .139.04.275.116.392l1.739 2.674c.01.014.016.03.019.047s.002.034-.004.051zm-3.168 1.296c-.03.188-.132.356-.285.469s-.344.162-.532.135l-2.424-.364c.109.602.5 1.404 1.767 1.719a.72.72 0 0 1 .443.327.72.72 0 0 1 .082.544.72.72 0 0 1-.327.443c-.081.049-.171.081-.264.095a.72.72 0 0 1-.28-.013c-2.688-.666-3.044-2.953-2.857-4.068a.72.72 0 0 1 .816-.592l3.259.489c.392.058.663.424.604.816z" fill="#fff" stroke="#fff" stroke-width="4" mask="url(#A)"/></svg>