<svg width="46" height="46" viewBox="0 0 46 46" fill="none" xmlns="http://www.w3.org/2000/svg">
<g clip-path="url(#clip0_306_1483)">
<path d="M35.8496 17.2891H34.4219V11.5781C34.4219 5.2788 29.2993 0.15625 23 0.15625C16.7007 0.15625 11.5781 5.2788 11.5781 11.5781V17.2891H10.1504C7.78989 17.2891 5.86719 19.2097 5.86719 21.5723V41.5605C5.86719 43.9231 7.78989 45.8438 10.1504 45.8438H35.8496C38.2101 45.8438 40.1328 43.9231 40.1328 41.5605V21.5723C40.1328 19.2097 38.2101 17.2891 35.8496 17.2891ZM15.3855 11.5781C15.3855 7.37858 18.8005 3.96366 23 3.96366C27.1995 3.96366 30.6145 7.37858 30.6145 11.5781V17.2891H15.3855V11.5781Z" fill="#899CB1"/>
</g>
<defs>
<clipPath id="clip0_306_1483">
<rect width="45.6875" height="45.6875" fill="white" transform="translate(0.15625 0.15625)"/>
</clipPath>
</defs>
</svg>
