<svg xmlns="http://www.w3.org/2000/svg" width="24" height="24" fill="#fff"><path d="M22.462 4.308H1.538A1.54 1.54 0 0 1 0 2.769a1.54 1.54 0 0 1 1.538-1.538h20.923A1.54 1.54 0 0 1 24 2.769a1.54 1.54 0 0 1-1.538 1.538zm-8.615 9.231H1.538A1.54 1.54 0 0 1 0 12a1.54 1.54 0 0 1 1.538-1.539h12.308A1.54 1.54 0 0 1 15.385 12a1.54 1.54 0 0 1-1.539 1.538zm8.615-.001H20A1.54 1.54 0 0 1 18.461 12 1.54 1.54 0 0 1 20 10.461h2.462A1.54 1.54 0 0 1 24 12a1.54 1.54 0 0 1-1.538 1.538zm0 9.231H1.538A1.54 1.54 0 0 1 0 21.231a1.54 1.54 0 0 1 1.538-1.538h20.923A1.54 1.54 0 0 1 24 21.231a1.54 1.54 0 0 1-1.538 1.539z"/></svg>