<svg xmlns="http://www.w3.org/2000/svg" width="23" height="32" fill="none"><path fill-rule="evenodd" d="M11.5 21.44a6.44 6.44 0 0 0 6.432-6.432V6.432A6.43 6.43 0 0 0 11.5 0a6.43 6.43 0 0 0-6.432 6.432v8.577A6.44 6.44 0 0 0 11.5 21.44h0zm1 3.905V30h4.201a1 1 0 0 1 1 1 1 1 0 0 1-1 1H6.299a1 1 0 0 1-1-1 1 1 0 0 1 1-1H10.5v-4.655a10.55 10.55 0 0 1-9.517-10.47 1 1 0 0 1 1-1 1 1 0 0 1 1 1 8.53 8.53 0 0 0 8.517 8.518 8.53 8.53 0 0 0 8.517-8.518 1 1 0 0 1 1-1 1 1 0 0 1 1 1 10.55 10.55 0 0 1-9.517 10.47h0z" fill="#4f6271"/></svg>