<svg xmlns="http://www.w3.org/2000/svg" width="79" height="93" fill="none"><path d="M79 46.5C79 72.181 71.727 93 46.208 93S0 72.181 0 46.5 20.688 0 46.208 0 79 20.819 79 46.5z" fill="#899cb1"/><g clip-path="url(#A)" fill="#fff"><path d="M52.515 35.193v.136c0 .372.302.674.674.674s.674-.302.674-.674v-.136a2.02 2.02 0 0 0-.474-1.301.67.67 0 0 0-.457-.232c-.177-.014-.352.042-.488.156a.67.67 0 0 0-.237.454c-.016.177.038.353.151.49a.66.66 0 0 1 .158.433zm.674 5.032c-.179 0-.35.071-.477.197a.67.67 0 0 0-.197.476v1.078c0 .372.302.674.674.674s.674-.302.674-.674v-1.078c0-.179-.071-.35-.197-.476s-.298-.197-.477-.197zm.674-2.65c0-.372-.302-.674-.674-.674s-.674.302-.674.674v1.078c0 .372.302.674.674.674s.674-.302.674-.674v-1.078zM42.235 65.633h-1.078c-.372 0-.674.302-.674.674s.302.674.674.674h1.078c.372 0 .674-.302.674-.674s-.302-.674-.674-.674zm-3.324 0h-1.078c-.179 0-.35.071-.476.197s-.197.298-.197.477.071.35.197.476.298.197.476.197h1.078c.372 0 .674-.302.674-.674s-.302-.674-.674-.674zm-3.324 0h-1.078c-.179 0-.35.071-.477.197a.67.67 0 0 0-.197.477c0 .179.071.35.197.476s.298.197.477.197h1.078c.179 0 .35-.071.477-.197a.67.67 0 0 0 .197-.476.68.68 0 0 0-.197-.477.67.67 0 0 0-.477-.197zm-3.324 0h-1.078c-.179 0-.35.071-.477.197a.67.67 0 0 0-.197.477c0 .179.071.35.197.476s.298.197.477.197h1.078c.179 0 .35-.071.477-.197a.67.67 0 0 0 .197-.476.68.68 0 0 0-.197-.477.67.67 0 0 0-.477-.197zm-3.045-.053a.68.68 0 0 1-.365-.378.67.67 0 0 0-.871-.385c-.166.065-.301.192-.373.356s-.077.349-.012.516c.098.252.245.481.433.676s.412.349.661.456a.67.67 0 0 0 .264.054c.155 0 .306-.054.426-.152s.203-.235.234-.387.009-.31-.063-.448a.67.67 0 0 0-.332-.307zm-1.084-1.696c.179 0 .35-.071.477-.197a.67.67 0 0 0 .197-.477v-1.078c0-.179-.071-.35-.197-.477a.67.67 0 0 0-.477-.197c-.179 0-.35.071-.477.197a.67.67 0 0 0-.197.477v1.078c0 .179.071.35.197.477a.67.67 0 0 0 .477.197zm3.071-24.409H21.86c-.179 0-.35.071-.477.197a.67.67 0 0 0-.197.476c0 .178.071.35.197.476s.298.197.477.197h9.345c.179 0 .35-.071.476-.197s.197-.298.197-.476-.071-.35-.197-.476-.298-.197-.476-.197zm0 3.265H21.86c-.179 0-.35.071-.477.197a.67.67 0 0 0-.197.477c0 .179.071.35.197.476s.298.197.477.197h9.345c.179 0 .35-.071.476-.197s.197-.298.197-.476a.68.68 0 0 0-.197-.477.67.67 0 0 0-.476-.197zm0 3.25H21.86c-.179 0-.35.071-.477.197a.67.67 0 0 0-.197.476c0 .178.071.35.197.476s.298.197.477.197h9.345c.179 0 .35-.071.476-.197s.197-.298.197-.476-.071-.35-.197-.476-.298-.197-.476-.197zm.674 3.953c0-.179-.071-.35-.197-.476s-.298-.197-.476-.197h-9.345c-.179 0-.35.071-.477.197a.67.67 0 0 0-.197.476.68.68 0 0 0 .197.477.67.67 0 0 0 .477.197h9.345c.179 0 .35-.071.476-.197s.197-.298.197-.477zM21.86 52.534c-.179 0-.35.071-.477.197a.67.67 0 0 0-.197.477c0 .179.071.35.197.476s.298.197.477.197h4.189c.179 0 .35-.071.477-.197a.67.67 0 0 0 .197-.476.68.68 0 0 0-.197-.477.67.67 0 0 0-.477-.197H21.86zm13.7 7.021a.67.67 0 0 0 .953 0l2.72-2.72c.126-.126.197-.298.197-.476a.68.68 0 0 0-.197-.477.67.67 0 0 0-.476-.197c-.178 0-.35.071-.476.197l-2.244 2.244-1.573-1.573c-.126-.126-.298-.197-.477-.197s-.35.071-.476.197-.197.298-.197.477.071.35.197.476l2.05 2.05zm10.718-17.951c.627-.491 1.192-1.056 1.683-1.683a1.19 1.19 0 0 0-.099-1.574l-1.228-1.228a7.15 7.15 0 0 0 .41-.991h1.738a1.19 1.19 0 0 0 1.182-1.043l.052-.567h.754c.372 0 .674-.302.674-.674s-.302-.674-.674-.674h-.761l-.044-.465a1.19 1.19 0 0 0-1.182-1.043h-1.738a7.15 7.15 0 0 0-.41-.991l1.228-1.228a1.19 1.19 0 0 0 .098-1.574 9.85 9.85 0 0 0-1.683-1.683 1.19 1.19 0 0 0-1.574.098l-1.228 1.228a7.12 7.12 0 0 0-.991-.41v-1.738a1.19 1.19 0 0 0-1.043-1.182 9.87 9.87 0 0 0-2.38 0 1.19 1.19 0 0 0-1.043 1.182v1.738c-.34.112-.671.249-.991.41L35.8 26.284a1.19 1.19 0 0 0-1.574-.099c-.627.491-1.192 1.056-1.683 1.683a1.19 1.19 0 0 0 .098 1.574l1.228 1.228a7.15 7.15 0 0 0-.41.991h-1.738a1.19 1.19 0 0 0-1.182 1.043l-.044.465h-9.449a1.56 1.56 0 0 0-1.112.461l-3.475 3.475a1.56 1.56 0 0 0-.46 1.112v19.419c0 .867.705 1.572 1.572 1.572h9.886v.677c0 .179.071.35.197.477a.67.67 0 0 0 .477.197c.179 0 .35-.071.477-.197a.67.67 0 0 0 .197-.477v-.677h1.84a5.96 5.96 0 0 0 5.724 4.328 5.96 5.96 0 0 0 5.95-5.95 5.96 5.96 0 0 0-5.259-5.909v-3.061c0-.179-.071-.35-.197-.476s-.298-.197-.477-.197-.35.071-.477.197a.67.67 0 0 0-.197.476v3.056a5.96 5.96 0 0 0-5.294 5.913l.007.275H17.572c-.06 0-.117-.024-.159-.066s-.066-.099-.066-.159V38.219c0-.059.024-.117.066-.159l3.475-3.475c.021-.021.046-.038.073-.049s.056-.017.086-.017h9.442l.052.567a1.19 1.19 0 0 0 1.182 1.043h1.738a7.12 7.12 0 0 0 .41.991l-1.228 1.228a1.19 1.19 0 0 0-.099 1.574c.491.627 1.056 1.192 1.683 1.683a1.19 1.19 0 0 0 1.486-.02v3.888c0 .179.071.35.197.476s.298.197.476.197a.68.68 0 0 0 .477-.197.67.67 0 0 0 .197-.476v-5.179a7.13 7.13 0 0 0 .959.395v1.738a1.19 1.19 0 0 0 1.043 1.182 9.86 9.86 0 0 0 2.38 0 1.19 1.19 0 0 0 1.043-1.182v-1.738c.34-.112.671-.249.991-.41l1.228 1.228a1.19 1.19 0 0 0 1.574.098zm-9.908 11.38a4.61 4.61 0 0 1 4.603 4.603 4.61 4.61 0 0 1-4.603 4.603 4.61 4.61 0 0 1-4.603-4.603 4.61 4.61 0 0 1 4.603-4.603zm6.578-13.95c-.31.163-.634.297-.968.401a1.19 1.19 0 0 0-.842 1.138v1.713a8.59 8.59 0 0 1-1.771 0v-1.713a1.19 1.19 0 0 0-.842-1.138c-.334-.104-.658-.238-.968-.401a1.19 1.19 0 0 0-1.4.209l-1.211 1.211a8.47 8.47 0 0 1-1.252-1.252l1.211-1.211a1.19 1.19 0 0 0 .209-1.4 5.78 5.78 0 0 1-.401-.968 1.19 1.19 0 0 0-1.138-.842h-1.713a8.53 8.53 0 0 1 0-1.771h1.713a1.19 1.19 0 0 0 1.138-.842 5.79 5.79 0 0 1 .401-.968 1.19 1.19 0 0 0-.209-1.4l-1.211-1.211a8.5 8.5 0 0 1 1.252-1.252l1.211 1.211a1.19 1.19 0 0 0 1.4.209 5.79 5.79 0 0 1 .968-.401 1.19 1.19 0 0 0 .842-1.138v-1.713a8.59 8.59 0 0 1 1.771 0v1.713a1.19 1.19 0 0 0 .842 1.138c.334.104.658.238.968.401a1.19 1.19 0 0 0 1.4-.209l1.211-1.211c.46.373.879.792 1.252 1.252L45.6 29.801h0a1.19 1.19 0 0 0-.209 1.4c.163.31.297.634.401.968.156.504.614.842 1.138.842h1.713a8.46 8.46 0 0 1 .046.885 8.73 8.73 0 0 1-.046.885h-1.714a1.19 1.19 0 0 0-1.138.842c-.104.334-.238.658-.401.968a1.19 1.19 0 0 0 .209 1.4l1.211 1.211c-.373.46-.792.879-1.252 1.252l-1.211-1.211a1.19 1.19 0 0 0-1.4-.21zm.766-7.408a.67.67 0 0 0-.355.374c-.064.167-.06.352.013.516.193.435.293.905.292 1.381 0 1.881-1.53 3.411-3.411 3.411s-3.411-1.53-3.411-3.411 1.53-3.411 3.411-3.411a3.41 3.41 0 0 1 1.212.222c.167.064.353.058.516-.015s.29-.208.354-.375a.67.67 0 0 0-.015-.515c-.073-.163-.208-.29-.375-.354a4.74 4.74 0 0 0-1.691-.311c-2.624 0-4.758 2.135-4.758 4.758s2.135 4.758 4.758 4.758 4.759-2.135 4.759-4.758a4.72 4.72 0 0 0-.408-1.927.67.67 0 0 0-.374-.355c-.167-.064-.352-.06-.516.013zm-3.461.178c-1.154 0-2.092.938-2.092 2.092s.938 2.092 2.092 2.092 2.092-.938 2.092-2.092-.938-2.092-2.092-2.092zm0 2.836c-.41 0-.744-.334-.744-.744s.334-.744.744-.744.744.334.744.744-.334.744-.744.744zm20.625 18.223c.619 0 1.123-.504 1.123-1.123v-4.914c0-.619-.504-1.123-1.123-1.123h-7.149a.67.67 0 0 0 .134-.402v-1.078c0-.372-.302-.674-.674-.674s-.674.302-.674.674v1.078a.67.67 0 0 0 .134.402H45.5c-.619 0-1.123.504-1.123 1.123v4.914c0 .619.504 1.123 1.123 1.123h7.015v1.351H45.5c-.619 0-1.123.504-1.123 1.123v4.915c0 .619.504 1.123 1.123 1.123h7.015v1.351H45.5c-.619 0-1.123.504-1.123 1.123v1.792c-.323.05-.57.328-.57.665s.247.615.57.665v1.792c0 .619.504 1.123 1.123 1.123h15.378c.619 0 1.123-.504 1.123-1.123V63.85c0-.619-.504-1.123-1.123-1.123h-7.015v-1.351h1.759c.372 0 .674-.302.674-.674s-.302-.674-.674-.674h-9.897v-4.465h14.929v4.465h-1.887c-.372 0-.674.302-.674.674s.302.674.674.674h2.111c.619 0 1.123-.504 1.123-1.123v-4.915c0-.619-.504-1.123-1.123-1.123h-7.015v-1.351h7.015zm-.225 11.211v4.465H45.724v-4.465h14.929zM45.724 51.516v-4.465h14.929v4.465H45.724zm12.405-2.906h-9.882c-.372 0-.674.302-.674.674s.302.674.674.674h9.882c.372 0 .674-.302.674-.674s-.302-.674-.674-.674zm.674 9.186c0-.179-.071-.35-.197-.476s-.298-.197-.477-.197h-9.882c-.372 0-.674.302-.674.674s.302.674.674.674h9.882c.179 0 .35-.071.477-.197a.67.67 0 0 0 .197-.476zm-10.556 9.186h9.882c.372 0 .674-.302.674-.674s-.302-.674-.674-.674h-9.882c-.372 0-.674.302-.674.674s.302.674.674.674z"/></g><defs><clipPath id="A"><path fill="#fff" transform="translate(16 24)" d="M0 0h46v46H0z"/></clipPath></defs></svg>