<svg xmlns="http://www.w3.org/2000/svg" width="16" height="16" fill="none"><g clip-path="url(#A)" fill="#4f6271"><path d="M14.253 11.275c-1.008-.852-1.586-2.097-1.586-3.417V6a4.67 4.67 0 0 0-4-4.613v-.72C8.667.298 8.368 0 8 0s-.667.298-.667.667v.72a4.67 4.67 0 0 0-4 4.613v1.859a4.47 4.47 0 0 1-1.592 3.422c-.259.222-.408.545-.408.886A1.17 1.17 0 0 0 2.5 13.333h11a1.17 1.17 0 0 0 .753-2.058zM8 16c1.207 0 2.217-.861 2.449-2H5.551c.232 1.139 1.242 2 2.449 2z"/></g><defs><clipPath id="A"><path fill="#fff" d="M0 0h16v16H0z"/></clipPath></defs></svg>