<svg xmlns="http://www.w3.org/2000/svg" width="90" height="91" fill="none"><rect y=".133" width="90" height="90" rx="25" fill="#ffebe5"/><g clip-path="url(#A)"><path d="M45 21.133a13.02 13.02 0 0 0-13 13v8a1 1 0 0 0 1 1h4a1 1 0 0 0 1-1v-8a7 7 0 1 1 14 0v8a1 1 0 0 0 1 1h4a1 1 0 0 0 1-1v-8a13.02 13.02 0 0 0-13-13z" fill="#f79999"/><path d="M33 41.133h24a5 5 0 0 1 5 5v18a5 5 0 0 1-5 5H33a5 5 0 0 1-5-5v-18a5 5 0 0 1 5-5z" fill="#899cb1"/><path d="M50 52.133a5 5 0 1 0-10-.042 5 5 0 0 0 2.782 4.502l-.772 5.4a1 1 0 0 0 .85 1.13.99.99 0 0 0 .14.01h4a1 1 0 0 0 1.01-.99.99.99 0 0 0-.01-.152l-.772-5.4A5.02 5.02 0 0 0 50 52.133z" fill="#f79999"/></g><defs><clipPath id="A"><path fill="#fff" transform="translate(21 21.133)" d="M0 0h48v48H0z"/></clipPath></defs></svg>