<svg xmlns="http://www.w3.org/2000/svg" width="79" height="93" fill="none"><g fill="#4f6271"><path d="M79 46.5C79 72.181 71.727 93 46.208 93S0 72.181 0 46.5 20.688 0 46.208 0 79 20.819 79 46.5z"/><path d="M52.755 50.618a.27.27 0 0 0-.017.251l1.185 2.668-3.083 3.083-2.668-1.184a.27.27 0 0 0-.251.017 14.61 14.61 0 0 1-4.29 1.778.27.27 0 0 0-.189.165l-1.048 2.723h-1.91v-8.681l.413-.033c4.415-.352 7.835-4.061 7.835-8.492s-3.421-8.139-7.835-8.491l-.413-.033v-8.681h1.91l1.048 2.722a.27.27 0 0 0 .189.166 14.64 14.64 0 0 1 4.288 1.777.27.27 0 0 0 .251.017l2.669-1.185 3.083 3.083-1.185 2.669a.27.27 0 0 0-.023.127c.003.044.017.086.04.123.817 1.326 1.417 2.774 1.778 4.288a.27.27 0 0 0 .166.189l2.722 1.049v4.358l-2.722 1.049a.27.27 0 0 0-.166.189 14.63 14.63 0 0 1-1.778 4.288zm-15.24.819v8.681h-1.911l-1.048-2.723c-.016-.041-.041-.077-.074-.106a.27.27 0 0 0-.115-.059c-1.515-.36-2.964-.96-4.29-1.778a.27.27 0 0 0-.251-.017l-2.668 1.185-3.082-3.083 1.185-2.668c.018-.04.025-.084.022-.127a.27.27 0 0 0-.039-.123c-.817-1.326-1.418-2.773-1.779-4.288a.27.27 0 0 0-.165-.189l-2.723-1.049v-4.359l2.723-1.049a.27.27 0 0 0 .165-.19c.361-1.515.962-2.962 1.779-4.288a.27.27 0 0 0 .016-.251l-1.184-2.669 3.083-3.083 2.668 1.186a.27.27 0 0 0 .127.022c.044-.003.086-.017.123-.04 1.326-.817 2.774-1.417 4.288-1.777a.27.27 0 0 0 .189-.166l1.049-2.722h1.91v8.681l-.413.033c-4.414.352-7.836 4.06-7.836 8.491s3.421 8.14 7.836 8.492l.414.033z" fill-rule="evenodd"/></g><path fill-rule="evenodd" d="M42.228 40.696a.72.72 0 0 1-.05 1.015l-3.819 3.466c-.132.12-.304.187-.482.187a.72.72 0 0 1-.509-.211l-1.572-1.572c-.067-.067-.12-.146-.156-.233a.72.72 0 0 1 0-.55.72.72 0 0 1 .664-.443.72.72 0 0 1 .508.21l1.088 1.088 3.312-3.004a.72.72 0 0 1 1.015.048zm8.963 22.62a.72.72 0 0 0-.745.347l-1.713 2.948-2.613-5.613.24-.623c.633-.223 1.254-.48 1.859-.77l3.012 1.338a.72.72 0 0 0 .799-.148l.732-.732 1.789 3.842-3.359-.587zm2.441-4.793a.72.72 0 0 0-.526-.404.72.72 0 0 0-.633.2l-1.11 1.109-2.867-1.274c-.097-.043-.203-.064-.309-.062a.72.72 0 0 0-.306.077c-.741.373-1.509.691-2.296.952a.72.72 0 0 0-.445.424l-.47 1.22a.72.72 0 0 0 .019.562l3.324 7.138a.72.72 0 0 0 .619.415h.033a.72.72 0 0 0 .622-.358l2.153-3.705 4.222.737a.72.72 0 0 0 .694-.271.72.72 0 0 0 .081-.741l-2.803-6.021zM29.08 67.011l-1.713-2.948c-.063-.109-.154-.199-.262-.262s-.233-.096-.358-.096c-.042 0-.083.003-.124.01l-3.358.587 1.975-4.241.731.732a.72.72 0 0 0 .801.148l3.01-1.338a18.55 18.55 0 0 0 1.859.77l.24.623-2.799 6.014zm3.781-7.465c-.038-.099-.098-.189-.175-.262s-.169-.129-.27-.162a17.05 17.05 0 0 1-2.296-.952.72.72 0 0 0-.306-.077c-.106-.003-.212.018-.309.062l-2.868 1.274-1.11-1.109c-.082-.082-.182-.143-.292-.177s-.227-.042-.341-.022a.72.72 0 0 0-.527.404l-2.99 6.421c-.055.119-.077.251-.063.382s.065.255.145.359a.72.72 0 0 0 .694.271l4.222-.738 2.154 3.705a.72.72 0 0 0 .621.357l.033-.001a.72.72 0 0 0 .619-.414l3.509-7.538c.041-.088.063-.183.066-.279s-.013-.193-.048-.283l-.47-1.22zM39 48.188c2.908 0 5.275-2.366 5.275-5.275S41.908 37.638 39 37.638s-5.275 2.366-5.275 5.275 2.366 5.275 5.275 5.275zm6.712-5.275c0-3.701-3.012-6.712-6.712-6.712s-6.713 3.012-6.713 6.712 3.011 6.713 6.713 6.713 6.712-3.011 6.712-6.713zm11.259 1.871v-3.742l-2.435-.938a.72.72 0 0 1-.441-.505c-.35-1.468-.931-2.872-1.723-4.157-.061-.099-.098-.212-.105-.329s.013-.233.06-.34l1.06-2.387-2.647-2.647-2.387 1.06a.72.72 0 0 1-.34.06c-.117-.008-.229-.044-.329-.106a14.19 14.19 0 0 0-4.157-1.723.72.72 0 0 1-.504-.441l-.937-2.435h-1.153v7.817c4.61.368 8.249 4.236 8.249 8.939s-3.639 8.572-8.249 8.939v7.817h1.153l.937-2.435a.72.72 0 0 1 .504-.441c1.469-.349 2.873-.931 4.158-1.723.099-.061.212-.097.329-.105a.72.72 0 0 1 .34.06l2.386 1.059 2.647-2.647-1.06-2.386c-.048-.107-.068-.223-.06-.34s.044-.229.105-.329a14.19 14.19 0 0 0 1.723-4.157.72.72 0 0 1 .441-.504l2.435-.938zm.978-4.906l-2.548-.981a15.6 15.6 0 0 0-1.608-3.879l1.108-2.497a.72.72 0 0 0-.149-.8l-3.344-3.344a.72.72 0 0 0-.8-.149l-2.496 1.109c-1.215-.709-2.52-1.25-3.88-1.608l-.981-2.547a.72.72 0 0 0-.264-.335c-.12-.082-.262-.126-.407-.126h-2.365a.72.72 0 0 0-.508.21.72.72 0 0 0-.156.233c-.036.087-.055.181-.055.275v9.226a.72.72 0 0 0 .21.508.72.72 0 0 0 .509.21 7.54 7.54 0 0 1 7.53 7.53 7.54 7.54 0 0 1-7.53 7.531c-.094 0-.188.019-.275.055s-.166.089-.233.156a.72.72 0 0 0-.211.508v9.226a.72.72 0 0 0 .211.508.72.72 0 0 0 .508.211h2.365a.72.72 0 0 0 .671-.461l.98-2.547c1.36-.359 2.665-.9 3.88-1.608l2.496 1.109a.72.72 0 0 0 .8-.149l3.344-3.345a.72.72 0 0 0 .149-.8l-1.108-2.497a15.63 15.63 0 0 0 1.608-3.879l2.548-.982a.72.72 0 0 0 .46-.67v-4.73a.72.72 0 0 0-.46-.67zM37.066 59.669v-7.817c-4.61-.367-8.249-4.236-8.249-8.939s3.639-8.571 8.249-8.939v-7.817h-1.153l-.938 2.435c-.042.109-.109.206-.197.283s-.193.131-.307.158c-1.469.349-2.868.93-4.157 1.723-.099.061-.212.098-.329.106a.72.72 0 0 1-.34-.06l-2.386-1.06-2.647 2.647 1.059 2.387c.048.107.069.223.061.34s-.044.229-.105.329a14.2 14.2 0 0 0-1.724 4.157.72.72 0 0 1-.44.505l-2.435.938v3.742l2.435.938a.72.72 0 0 1 .44.504 14.19 14.19 0 0 0 1.724 4.157.72.72 0 0 1 .045.669l-1.06 2.386 2.646 2.647 2.386-1.059a.72.72 0 0 1 .669.045c1.29.794 2.688 1.374 4.158 1.723.114.027.219.081.307.158s.156.174.197.283l.937 2.435h1.154zm.719-9.226a7.54 7.54 0 0 1-7.531-7.531 7.54 7.54 0 0 1 7.531-7.53.72.72 0 0 0 .719-.719v-9.226a.72.72 0 0 0-.719-.718h-2.366a.72.72 0 0 0-.67.461l-.981 2.547c-1.36.358-2.665.899-3.88 1.608l-2.497-1.109a.72.72 0 0 0-.8.149l-3.345 3.344a.72.72 0 0 0-.149.8l1.11 2.497c-.709 1.215-1.25 2.52-1.609 3.88l-2.547.981a.72.72 0 0 0-.461.67v4.73c0 .145.044.287.126.407s.199.211.335.263l2.547.981c.359 1.36.9 2.664 1.609 3.879l-1.11 2.497a.72.72 0 0 0 .149.8l3.344 3.345a.72.72 0 0 0 .8.149l2.496-1.109a15.61 15.61 0 0 0 3.88 1.608l.981 2.547a.72.72 0 0 0 .67.461h2.366a.72.72 0 0 0 .719-.719v-9.226a.72.72 0 0 0-.719-.718z" fill="#fff"/></svg>