<svg xmlns="http://www.w3.org/2000/svg" width="16" height="16" fill="none"><path d="M4.667 4c.177 0 .346-.07.471-.195s.195-.295.195-.471-.07-.346-.195-.471-.295-.195-.471-.195H3.333c-.177 0-.346.07-.471.195s-.195.295-.195.471v9.333c0 .177.07.346.195.471s.295.195.471.195h1.333c.177 0 .346-.07.471-.195s.195-.295.195-.471-.07-.346-.195-.471S4.843 12 4.667 12H4V4h.667zm9.213 3.613L12 4.947c-.102-.144-.257-.241-.43-.271s-.352.01-.496.111c-.072.051-.133.115-.181.189s-.079.157-.094.244-.012.176.007.261.056.167.107.239l1.147 1.613H6.667c-.177 0-.346.07-.471.195S6 7.824 6 8s.07.346.195.471.295.195.471.195H12l-1.2 1.6c-.053.07-.091.15-.112.235s-.027.173-.014.26a.67.67 0 0 0 .086.245c.045.075.104.141.174.194.115.087.256.133.4.133.104 0 .206-.024.298-.07s.173-.113.235-.196l2-2.667c.085-.113.133-.25.135-.391s-.04-.28-.122-.396z" fill="#4f6271"/></svg>