<svg xmlns="http://www.w3.org/2000/svg" width="16" height="16" fill="#4f6271" fill-rule="evenodd"><path d="M7.506 2.46A.8.8 0 0 1 8 3.199v9.6a.8.8 0 0 1-1.366.566l-2.966-2.966H1.6a.8.8 0 0 1-.8-.8v-3.2a.8.8 0 0 1 .8-.8h2.069l2.966-2.966a.8.8 0 0 1 .872-.173zm4.219-.117a.8.8 0 0 1 1.132 0A7.98 7.98 0 0 1 15.2 8c0 2.209-.896 4.21-2.343 5.657a.8.8 0 1 1-1.132-1.131A6.38 6.38 0 0 0 13.6 8c0-1.767-.715-3.366-1.875-4.525a.8.8 0 0 1 0-1.131zM9.462 4.605a.8.8 0 0 1 1.131 0c.421.421.764.92 1.006 1.474a4.79 4.79 0 0 1 .4 1.92c0 1.325-.538 2.526-1.406 3.394a.8.8 0 0 1-1.131-1.131c.58-.58.937-1.379.937-2.263 0-.457-.095-.889-.266-1.28-.161-.369-.39-.702-.671-.983a.8.8 0 0 1 0-1.131z"/></svg>