<svg xmlns="http://www.w3.org/2000/svg" width="44" height="44" fill="#4f6271"><path d="M19.787 36.26h1.626a.93.93 0 0 0 .888-.659l2.32-7.69-.554.006-4.279 8.344zM35.512 3.066h0z"/><path d="M35.507 3.074c.459-.789.234-1.824-.543-2.313-.816-.514-1.887-.245-2.368.582l-3.868 6.659a4.33 4.33 0 0 1-2.535 4.365l-.191.328H22.09a4.32 4.32 0 0 0-1.246.184l-4.994 1.505-2.934-3.846c-.567-.743-1.63-.886-2.373-.319s-.886 1.63-.319 2.373l3.655 4.792c.431.566 1.173.803 1.856.588l3.92-1.209v8.439L11.79 40.541c-.557 1.085-.039 2.412 1.107 2.834.948.35 2.034-.053 2.509-.98l7.985-15.57 1.317-.014 3.252 2.068-3.052 6.011c-.508 1.001-.109 2.224.892 2.732s2.223.111 2.732-.892l3.886-7.655a2.03 2.03 0 0 0-.721-2.634l-3.441-2.128v-8.752l7.251-12.484zM23.961 19.101c-1.108 0-2.006-.898-2.006-2.006s.898-2.006 2.006-2.006 2.006.899 2.006 2.006-.898 2.006-2.006 2.006z"/><path d="M35.506 3.073zm-11.093 8.745h.037c1.881-.02 3.389-1.561 3.369-3.442-.02-1.868-1.541-3.369-3.404-3.369h-.037c-1.881.02-3.389 1.561-3.369 3.442.02 1.868 1.541 3.369 3.404 3.369zm-5.895 13.124v-6.691l-.685.204-9.152 16.427a.93.93 0 0 0 .81 1.379h3.259l5.768-11.318z"/></svg>