<svg xmlns="http://www.w3.org/2000/svg" width="90" height="90" fill="none"><rect width="90" height="90" rx="25" fill="#ffebe5"/><path d="M67.874 55.1V37.959a4.07 4.07 0 0 0-4.067-4.067 4.07 4.07 0 0 0-4.067 4.067v4.208L48.721 31.147c-1.377-1.377-3.609-1.377-4.986 0s-1.377 3.609 0 4.986l-2.517-2.517c-1.377-1.377-3.609-1.377-4.986 0s-1.377 3.609 0 4.986l1.457 1.457c-1.377-1.377-3.609-1.377-4.986 0s-1.377 3.609 0 4.986L36.3 48.64c-1.377-1.377-3.609-1.377-4.986 0s-1.377 3.609 0 4.986l11.1 11.1c5.698 5.698 14.937 5.698 20.635 0l1.43-1.43c2.263-2.263 3.394-5.229 3.394-8.195z" fill="#f79999"/><g fill="#4f6271"><path d="M36.818 49.158l-.518-.518-1.282-.818c-1.248-.456-2.702-.183-3.704.818-1.377 1.377-1.377 3.609 0 4.986l6.855 6.855c-2.23-3.862-2.679-8.654-1.351-11.323zm-4.114-4.113l1.931 1.931c-.346-1.072-1.192-5.376.298-7.938a3.51 3.51 0 0 0-2.229 1.022c-1.377 1.377-1.377 3.609 0 4.986zm17.864-1.377a.7.7 0 0 1-.497-.206l-6.833-6.832a.7.7 0 0 1 0-.994c.275-.274.72-.275.994 0l6.833 6.833a.7.7 0 0 1-.497 1.2zm-4.906 5.066a.7.7 0 0 1-.497-.206l-7.972-7.973a.7.7 0 0 1 0-.994c.275-.274.72-.275.994 0l7.972 7.972a.7.7 0 0 1-.497 1.2z"/><path d="M41.559 54.603a.7.7 0 0 1-.497-.206l-5.259-5.259a.7.7 0 0 1 0-.994c.275-.274.72-.275.994 0l5.259 5.259a.7.7 0 0 1-.497 1.2zm13.334-23.238c-.481-1.995-2.091-3.55-4.101-3.961-.38-.078-.626-.449-.548-.83s.45-.626.83-.548c2.542.52 4.578 2.486 5.186 5.01.091.377-.141.757-.519.848a.7.7 0 0 1-.848-.519zm5.092-.475c-1.032-4.28-4.485-7.616-8.797-8.498-.38-.078-.626-.449-.548-.83s.449-.626.83-.548a12.86 12.86 0 0 1 9.882 9.546.7.7 0 1 1-1.367.329zM32.162 61.945c-2.523-.608-4.489-2.644-5.009-5.186-.078-.38.167-.752.548-.83s.752.167.83.548c.411 2.01 1.966 3.62 3.962 4.101.377.091.61.471.519.848s-.471.61-.848.519zm-.475 5.092a12.86 12.86 0 0 1-9.546-9.882c-.078-.38.167-.752.548-.83s.752.167.83.548c.882 4.312 4.218 7.765 8.498 8.797.377.091.61.471.519.848s-.471.61-.848.519z"/></g><path d="M56.215 57.065c-.272 0-.531-.158-.645-.424a11.49 11.49 0 0 1 .734-10.554c.203-.331.635-.436.967-.233s.436.635.233.967c-1.707 2.791-1.947 6.253-.644 9.261.154.356-.009.77-.365.925a.7.7 0 0 1-.279.058z" fill="#f79999"/></svg>